<svg width="24" height="24" viewBox="0 0 24 24" fill="none" xmlns="http://www.w3.org/2000/svg">
    <path
        d="M20.2696 5.75006C20.6617 5.75349 21.0368 5.91195 21.3135 6.19049C21.5901 6.46892 21.7466 6.84535 21.7501 7.23834C21.7534 7.63153 21.603 8.0107 21.3311 8.294L21.3282 8.29693L10.3809 19.3096C10.1011 19.5911 9.72064 19.75 9.32427 19.7501C8.97724 19.75 8.64272 19.6284 8.37701 19.4092L8.26763 19.3096L2.67193 13.6778L2.669 13.6749C2.39721 13.3916 2.2467 13.0123 2.25006 12.6192C2.25346 12.2262 2.41011 11.8498 2.68658 11.5713C2.96334 11.2928 3.33845 11.1344 3.73052 11.1309C4.07371 11.1279 4.40566 11.2436 4.67193 11.4561L4.78131 11.5528L4.78521 11.5557L9.3233 16.1241L19.2149 6.17486L19.2188 6.17193L19.3282 6.07525C19.5944 5.86285 19.9265 5.74707 20.2696 5.75006Z"
        fill="white" />
</svg>    